<svg xmlns="http://www.w3.org/2000/svg" width="1112" height="1111" viewBox="0 0 1112 1111" version="1.1">
  <path
    d="M 553.72 21.614 C 553.382 21.951 549.111 22.289 544.228 22.364 C 536.471 22.483 534.855 22.828 531.423 25.1 C 527.075 27.979 523.498 28.936 514.352 29.669 C 510.19 30.002 507.538 30.782 506.144 32.081 C 505.011 33.136 503.416 34 502.601 34 C 501.785 34 500.84 34.45 500.5 35 C 500.16 35.55 498.742 36 497.349 36 C 495.955 36 493.671 36.9 492.273 38 C 490.874 39.1 488.441 40 486.865 40 C 485.289 40 484 40.418 484 40.929 C 484 41.879 476.751 47.115 473.946 48.191 C 471.933 48.963 466 60.089 466 63.092 C 466 64.364 464.697 66.776 463.105 68.452 C 459.74 71.995 458.026 78.758 457.949 88.799 C 457.92 92.485 457.551 98.617 457.129 102.426 C 456.606 107.13 456.797 111.622 457.722 116.426 C 458.471 120.317 459.459 129.575 459.917 137 C 460.571 147.588 461.262 151.74 463.125 156.249 C 464.431 159.41 466.014 161.998 466.642 161.999 C 467.269 161.999 468.055 163.081 468.386 164.402 C 469.072 167.135 468.129 173 467.004 173 C 466.594 173 466.194 175.925 466.117 179.5 C 466.009 184.473 466.305 186 467.377 186 C 468.185 186 469.12 187.587 469.587 189.75 C 470.762 195.199 470.698 195.535 468.554 195.161 C 466.881 194.87 466.792 195.045 467.924 196.409 C 468.816 197.483 469.1 199.943 468.804 204.028 C 468.499 208.246 468.764 210.389 469.684 211.153 C 470.516 211.843 471 214.551 471 218.515 C 471 227.473 473.672 239.373 477.517 247.545 C 479.341 251.42 481.133 256.37 481.499 258.545 C 482.5 264.481 485.043 272 486.049 272 C 486.538 272 486.678 271.325 486.362 270.5 C 486.045 269.675 486.172 269.001 486.643 269.001 C 488.237 269.003 493 273.722 493 275.299 C 493 276.16 493.788 277.135 494.75 277.465 C 495.712 277.795 497.4 279.368 498.5 280.961 C 502.764 287.136 508.552 293.889 509.628 293.943 C 510.248 293.974 511.311 294.67 511.991 295.489 C 512.671 296.308 513.632 296.728 514.127 296.422 C 514.622 296.116 516.786 297.695 518.935 299.933 C 521.085 302.17 523.569 304 524.455 304 C 526.176 304 532 309.425 532 311.028 C 532 312.7 540.196 318 542.782 318 C 544.147 318 546.892 316.994 548.882 315.764 C 550.872 314.534 552.532 313.522 552.571 313.514 C 552.611 313.506 553.411 314.268 554.35 315.208 C 555.352 316.209 556.77 316.653 557.779 316.282 C 560.791 315.175 563.999 312.807 563.526 312.041 C 563.274 311.634 564.17 310.712 565.518 309.991 C 566.865 309.27 568.222 307.875 568.535 306.891 C 568.847 305.907 569.998 304.818 571.093 304.47 C 572.811 303.925 577.132 300.222 585.605 292.034 C 586.763 290.915 588.311 290 589.045 290 C 590.877 290 598 281.972 598 279.907 C 598 278.986 598.945 277.986 600.101 277.684 C 601.277 277.376 601.907 276.658 601.532 276.052 C 600.846 274.941 605.886 264 607.085 264 C 607.945 264 616.115 247.227 616.561 244.543 C 616.748 243.419 617.576 239.537 618.401 235.915 C 619.225 232.293 620.164 224.193 620.487 217.915 C 621.944 189.607 622.14 183.538 621.582 184.091 C 621.014 184.653 620.614 187.229 618.024 207 C 616.348 219.79 616.4 219.658 612.763 220.506 C 610.968 220.924 609.007 221.203 608.405 221.125 C 607.803 221.047 606.092 222.112 604.603 223.492 C 603.115 224.871 601.672 226 601.397 226 C 601.123 226 600.24 224.425 599.436 222.5 C 597.755 218.479 595.909 218.011 594.487 221.244 C 593.421 223.668 589.759 225.049 590.224 222.852 C 590.376 222.135 589.469 221.391 588.208 221.199 C 586.948 221.007 584.437 219.37 582.629 217.562 C 580.82 215.753 577.049 213.513 574.247 212.582 C 571.446 211.652 568.614 210.24 567.955 209.445 C 567.295 208.65 566.135 208 565.378 208 C 563.518 208 563.64 207.274 566 204.273 C 567.1 202.874 568 201.341 568 200.865 C 568 199.324 558.344 199.881 557 201.5 C 554.954 203.965 548.723 203.398 546 200.5 C 543.357 197.687 538.114 197.175 534.199 199.348 L 531.898 200.625 L 534.395 203.122 L 536.892 205.62 L 530.696 208.422 C 527.288 209.963 523.419 211.736 522.098 212.362 C 520.778 212.988 518.827 213.353 517.764 213.173 C 516.701 212.993 514.072 214.01 511.921 215.434 C 506.454 219.051 503.903 219.135 502.241 215.75 C 500.711 212.635 497.234 212.04 496.396 214.75 C 496.098 215.713 495.437 217.281 494.927 218.236 C 494.417 219.191 493.964 220.991 493.921 222.236 C 493.869 223.737 493.646 224 493.26 223.018 C 492.94 222.203 492.076 220.933 491.339 220.196 C 490.603 219.46 490 218.321 490 217.666 C 490 217.01 488.988 216.03 487.75 215.487 C 486.512 214.944 485.456 213.825 485.402 213 C 485.115 208.591 484.92 207.931 484.061 208.462 C 483.545 208.781 482.758 208.47 482.311 207.771 C 481.865 207.072 480.6 206.002 479.5 205.393 C 478.147 204.645 477.452 203.148 477.352 200.769 C 477.271 198.834 476.675 196.261 476.027 195.051 C 475.35 193.786 474.563 185.655 474.175 175.91 L 473.5 158.968 L 476 156.942 C 477.375 155.828 479.352 155.135 480.394 155.403 C 481.821 155.768 482.005 155.605 481.139 154.739 C 480.507 154.107 478.754 153.569 477.245 153.545 L 474.5 153.5 L 474.807 143.587 C 475.012 137.005 475.6 132.982 476.557 131.615 C 477.351 130.482 478 128.962 478 128.237 C 478 127.512 478.896 125.7 479.992 124.21 C 481.763 121.8 481.946 120.225 481.649 110 C 481.28 97.333 481.892 95.16 487.981 87.5 C 491.404 83.192 496 80.085 496 82.076 C 496 83.427 501.142 82.388 502.096 80.845 C 502.434 80.297 506.011 79.435 510.044 78.928 C 514.078 78.422 517.633 77.594 517.945 77.089 C 518.457 76.261 523.324 76.353 535.798 77.427 C 538.162 77.631 541.417 78.344 543.03 79.013 C 544.644 79.681 546.704 79.944 547.609 79.597 C 548.513 79.25 549.817 79.433 550.505 80.004 C 551.363 80.716 552.602 80.722 554.443 80.021 C 555.921 79.46 558.705 79 560.631 79 C 562.556 79 564.918 78.579 565.88 78.064 C 566.976 77.478 569.282 77.502 572.064 78.128 C 574.504 78.678 578.176 79.152 580.225 79.181 C 582.274 79.211 584.467 79.857 585.098 80.618 C 585.729 81.378 587.278 82 588.541 82 C 589.804 82 592.112 82.63 593.669 83.4 C 595.226 84.17 598.271 85.354 600.436 86.032 C 604.9 87.429 607.197 89.414 612.434 96.397 C 614.717 99.44 615.752 101.648 615.17 102.23 C 614.588 102.812 614.922 105.439 616.052 109.171 C 617.808 114.972 617.754 118 615.893 118 C 615.402 118 615.007 120.362 615.015 123.25 C 615.026 126.821 615.324 128.037 615.947 127.052 C 616.652 125.937 617.002 126.282 617.469 128.552 C 617.803 130.173 619.027 133.283 620.19 135.462 C 621.886 138.641 622.4 141.768 622.793 151.297 C 623.164 160.321 623.624 163.302 624.708 163.718 C 627.933 164.956 628.96 161.622 631.521 141.588 C 632.43 134.487 633.588 127.584 634.095 126.249 C 634.603 124.914 635.212 120.282 635.45 115.956 C 635.687 111.63 636.314 107.281 636.843 106.293 C 637.849 104.414 637.753 97.593 636.476 80.087 L 635.717 69.673 L 630.4 64.087 C 617.061 50.071 615.576 48.828 607.776 45.141 C 600.728 41.811 598.031 38.872 599.927 36.588 C 600.708 35.647 600.525 34.913 599.246 33.845 C 595.943 31.086 591.89 30 584.903 30 C 578.051 30 572 28.112 572 25.974 C 572 25.438 570.081 25 567.735 25 C 565.381 25 561.799 24.104 559.739 23 C 555.777 20.876 554.704 20.629 553.72 21.614 M 501 135.739 C 497.425 137.192 493.323 139.628 491.884 141.153 C 489.503 143.676 487.385 150.437 487.915 153.824 C 488.029 154.552 487.685 155.677 487.151 156.324 C 485.347 158.508 486.663 169.411 489.437 175.276 C 494.74 186.485 501.852 190.555 514.824 189.804 C 520.915 189.451 523.757 188.748 527.467 186.675 C 533.192 183.475 533.891 183.358 531.5 186 C 530.505 187.1 530.075 188 530.545 188 C 531.015 188 530.86 188.54 530.2 189.2 C 528.782 190.618 528.633 192 529.899 192 C 530.994 192 535 184.515 535 182.469 C 535 181.661 535.355 181 535.789 181 C 537.195 181 542.874 170.626 544.001 166 C 545.918 158.126 546.225 155 545.082 155 C 544.487 155 544 155.62 544 156.378 C 544 157.135 543.325 158.315 542.5 159 C 541.237 160.048 541 159.862 541 157.822 C 541 156.49 541.563 154.794 542.25 154.053 C 543.25 152.976 543.25 152.848 542.25 153.412 C 541.488 153.842 541 153.523 541 152.594 C 541 151.756 540.1 150.589 539 150 C 536.688 148.763 536.26 146.502 538.5 147.362 C 540.175 148.004 540.572 146.471 538.984 145.49 C 538.425 145.144 538.226 144.443 538.543 143.931 C 538.859 143.419 538.465 143 537.666 143 C 536.867 143 535.962 142.344 535.654 141.542 C 535.089 140.07 527.454 137.52 521 136.648 C 519.075 136.388 515.25 135.465 512.5 134.598 C 509.75 133.731 507.5 133.039 507.5 133.06 C 507.5 133.08 504.575 134.286 501 135.739 M 581.58 139.121 C 573.857 140.734 572.29 141.421 569.909 144.242 C 567.481 147.117 566.918 147.354 565.11 146.261 C 563.192 145.1 563.07 145.246 563.194 148.547 C 563.267 150.487 562.824 152.576 562.21 153.19 C 561.427 153.973 561.401 154.881 562.124 156.231 C 563.289 158.408 562.636 161 560.923 161 C 560.207 161 560.016 160.071 560.411 158.5 C 560.782 157.021 560.609 156 559.987 156 C 558.479 156 557.093 160.226 558.019 162 C 558.45 162.825 559.122 165.628 559.512 168.228 C 560.966 177.929 565.571 187.098 570.227 189.564 C 572.027 190.518 575.3 192.234 577.5 193.379 C 583.802 196.658 593.531 196.819 600.223 193.756 C 611.773 188.468 618.609 173.719 615.173 161.5 C 614.4 158.75 612.92 155.571 611.884 154.436 C 610.848 153.3 610 151.219 610 149.811 C 610 144.705 599.573 136.826 593.216 137.13 C 591.722 137.201 586.486 138.097 581.58 139.121 M 512 142.417 C 512 143.287 511.663 144.02 511.25 144.044 C 510.837 144.069 508.363 144.244 505.75 144.433 C 502.2 144.689 501 144.426 501 143.388 C 501 142.625 500.295 142 499.433 142 C 498.383 142 498.052 142.59 498.432 143.785 C 498.832 145.045 498.112 146.093 495.986 147.349 C 494.329 148.328 492.274 150.788 491.421 152.815 C 489.481 157.42 489.397 167.373 491.259 172 C 494.565 180.217 495.495 182 496.479 182 C 497.051 182 498.029 182.817 498.652 183.815 C 500.237 186.353 509.671 188.445 515.666 187.588 C 518.325 187.208 521.333 186.808 522.351 186.699 C 524.55 186.463 531.127 180.149 533.977 175.537 C 535.09 173.737 536 171.106 536 169.691 C 536 168.276 536.45 166.84 537 166.5 C 538.255 165.725 538.325 161 537.082 161 C 536.577 161 535.426 160.717 534.524 160.371 C 533.202 159.864 532.944 160.3 533.192 162.621 C 533.468 165.205 533.202 165.5 530.583 165.5 C 528.254 165.5 527.632 165.036 527.496 163.199 C 527.403 161.934 526.597 160.168 525.704 159.276 C 524.208 157.78 524.009 157.845 523.145 160.118 C 520.892 166.046 514.876 166.651 511.514 161.289 C 510.406 159.522 509.168 158.06 508.762 158.039 C 508.356 158.017 507.73 159.839 507.37 162.086 C 507.011 164.333 506.068 166.42 505.275 166.725 C 504.292 167.102 504.186 167.497 504.945 167.966 C 505.628 168.388 505.082 169.097 503.528 169.805 C 501.13 170.898 501 170.803 501 167.957 C 501 165.644 500.37 164.681 498.25 163.749 C 494.768 162.219 494.034 161.175 494.015 157.719 C 494.006 155.975 494.653 154.694 495.75 154.286 C 496.712 153.928 498.625 152.831 500 151.847 C 502.438 150.104 511 148.153 511 149.34 C 511 149.668 509.762 150.623 508.25 151.463 L 505.5 152.99 L 508.353 152.543 C 509.922 152.296 512.312 151.37 513.664 150.485 C 515.016 149.599 516.657 149.092 517.311 149.358 C 517.965 149.624 517.6 149.885 516.5 149.936 C 514.838 150.015 514.754 150.193 516 150.992 C 516.825 151.522 518.199 151.738 519.052 151.472 C 519.906 151.207 521.481 151.653 522.552 152.464 C 524.454 153.902 524.447 153.937 522.25 153.968 C 521.013 153.986 520 154.398 520 154.883 C 520 155.369 519.1 156.002 518 156.29 C 516.9 156.577 516 156.33 516 155.74 C 516 155.15 515.764 154.902 515.476 155.19 C 515.189 155.478 515.233 156.444 515.576 157.338 C 516.022 158.498 517.097 158.844 519.35 158.548 C 521.082 158.321 522.837 158.105 523.25 158.067 C 523.663 158.03 524 157.325 524 156.5 C 524 155.667 524.889 155 526 155 C 527.1 155 528 154.501 528 153.892 C 528 152.487 533.177 153.683 534.225 155.329 C 534.73 156.124 534.974 155.987 534.985 154.905 C 534.993 154.028 534.086 152.483 532.968 151.471 C 531.851 150.46 531.063 148.703 531.218 147.566 C 531.473 145.696 531.053 145.528 526.781 145.797 C 521.262 146.144 513.919 144.409 514.262 142.84 C 514.393 142.24 513.938 141.544 513.25 141.292 C 512.563 141.04 512 141.546 512 142.417 M 592.305 146.651 C 590.901 146.954 590.309 147.643 590.662 148.562 C 591.392 150.463 594 150.415 594 148.5 C 594 146.647 593.978 146.647 600.67 148.593 C 606.517 150.292 609.208 149.811 604.389 147.927 C 600.95 146.583 595.356 145.992 592.305 146.651 M 573.08 151.29 C 572.568 152.636 570.93 154.696 569.44 155.869 C 566.338 158.308 567.429 158.789 570.764 156.453 C 572.553 155.2 572.87 155.175 572.43 156.321 C 571.739 158.123 575.664 159.25 578.096 157.949 C 580.352 156.741 581 156.753 581 158 C 581 158.55 580.448 158.887 579.774 158.75 C 579.099 158.613 578.393 159.512 578.204 160.75 C 577.954 162.389 578.355 162.996 579.68 162.985 C 582.395 162.962 584.141 161.532 583.499 159.858 C 582.423 157.055 586.904 155.758 592.172 157.348 C 595.756 158.429 596.733 158.468 596.367 157.514 C 596.105 156.83 594.799 155.774 593.465 155.166 C 591.976 154.488 591.252 153.506 591.59 152.625 C 592.178 151.095 589.504 150.309 583 150.1 C 581.075 150.039 578.265 149.731 576.755 149.416 C 574.496 148.945 573.845 149.276 573.08 151.29 M 593.5 151.777 C 594.05 152.343 595.399 152.968 596.498 153.166 C 597.703 153.384 598.497 154.315 598.498 155.513 C 598.499 156.773 599.084 157.405 600.096 157.242 C 601.705 156.981 601.706 156.996 601.08 169.046 C 601.027 170.074 600.078 170.558 598.25 170.49 C 596.737 170.434 594.938 170.805 594.25 171.316 C 593.441 171.917 593 171.849 593 171.122 C 593 170.505 593.506 170 594.125 170 C 594.856 170 595.027 168.885 594.613 166.816 C 593.506 161.279 589 158.139 589 162.904 C 589 165.652 585.716 168 581.872 168 C 578.8 168 578.253 167.59 577.11 164.427 C 575.874 161.009 575.737 160.928 573.935 162.559 C 572.899 163.497 571.784 165.104 571.458 166.132 C 570.598 168.842 568.287 168.422 566.609 165.25 C 565.325 162.822 565.071 162.712 564.446 164.314 C 564.056 165.311 564.246 167.245 564.869 168.611 C 565.491 169.977 566 172.22 566 173.597 C 566 178.281 571.536 186.935 576.485 189.986 C 584.485 194.918 592.382 195.439 599.937 191.533 C 601.567 190.69 603.618 190 604.494 190 C 605.371 190 605.964 189.438 605.812 188.75 C 605.661 188.063 607.1 184.8 609.01 181.5 C 612.09 176.179 612.485 174.688 612.492 168.327 C 612.501 160.061 610.813 156.896 604.701 153.724 C 600.583 151.588 591.839 150.067 593.5 151.777 M 453 164.362 C 453 164.562 454.238 166.273 455.75 168.166 C 457.92 170.881 459.005 171.485 460.894 171.033 C 463.261 170.466 463.246 170.423 459.609 167.23 C 456.526 164.523 453 162.993 453 164.362 M 622 166.058 C 620.625 166.466 620.073 166.845 620.773 166.9 C 621.75 166.977 621.892 168.862 621.38 175 C 620.966 179.965 621.081 183 621.683 183 C 622.726 183 626.018 166.087 625.069 165.604 C 624.756 165.445 623.375 165.649 622 166.058 M 520.822 169.875 C 514.444 172.091 513.492 173.433 518.885 172.606 C 521.296 172.236 524.394 171.048 525.77 169.967 C 528.706 167.657 527.282 167.631 520.822 169.875 M 573.459 171.067 C 573.096 171.653 572.957 172.281 573.15 172.461 C 574.127 173.378 581.373 175.96 581.792 175.541 C 582.059 175.274 581.151 174.628 579.775 174.105 C 578.399 173.581 577.001 172.444 576.668 171.577 C 575.971 169.761 574.418 169.514 573.459 171.067 M 540.5 205 C 538.903 205.686 539.267 205.874 542.309 205.93 C 544.579 205.972 545.868 206.404 545.5 207 C 545.16 207.55 545.584 208 546.441 208 C 547.298 208 548 208.421 548 208.935 C 548 210.932 545.986 215.014 544.04 216.96 C 541.391 219.609 541.467 220.558 544.573 223.664 C 546.689 225.78 547.776 226.136 550.68 225.665 C 554.063 225.115 556.901 222.738 556.968 220.396 C 556.986 219.789 555.875 218.078 554.5 216.595 C 553.125 215.111 552 212.763 552 211.377 C 552 208.46 550.246 206.424 546.51 205.004 C 543.464 203.846 543.187 203.846 540.5 205 M 529 231.916 C 525.425 233.503 519.935 235.324 516.799 235.962 C 511.117 237.118 511.102 237.13 512.24 239.811 C 514.396 244.889 517.055 247 521.298 247 L 525.248 247 L 524.797 252.429 C 524.412 257.082 524.611 257.926 526.191 258.34 C 527.949 258.799 531 256.73 531 255.078 C 531 253.312 528.745 248 527.996 248 C 526.493 248 528.113 244.411 530.205 243.104 C 531.358 242.384 535.331 241.788 539.141 241.764 C 542.913 241.741 546 241.357 546 240.912 C 546 240.466 547.566 240.757 549.481 241.557 C 551.396 242.356 555.332 243.352 558.229 243.769 C 561.805 244.284 563.528 245.004 563.596 246.014 C 563.651 246.831 563.764 248.486 563.848 249.69 C 563.971 251.464 564.522 251.818 566.75 251.554 C 568.263 251.375 570.962 251.177 572.75 251.114 C 575.263 251.026 576 250.559 576 249.057 C 576 247.988 576.939 246.456 578.086 245.652 C 579.746 244.49 579.963 243.798 579.146 242.273 C 577.853 239.857 570.926 235 568.773 235 C 567.882 235 565.727 233.8 563.984 232.333 C 560.973 229.799 560.186 229.651 548.158 229.348 C 536.029 229.042 535.228 229.15 529 231.916 M 561.667 254.667 C 560.492 255.841 560.954 259 562.3 259 C 564.221 259 565.921 256.957 565.315 255.378 C 564.757 253.925 562.792 253.542 561.667 254.667 M 610.738 286.25 C 612.626 296.779 611.267 333.951 606.984 389 C 605.936 402.475 604.593 424.075 604 437 C 602.597 467.588 597.137 521.716 591.905 556.908 C 590.847 564.021 589.298 680.004 589.882 708.366 C 590.136 720.717 589.123 727 586.879 727 C 585.003 727 586.014 731.77 588 732.29 C 589.79 732.758 590 733.654 590 740.823 C 590 745.424 589.562 748.979 588.971 749.176 C 588.334 749.389 588.714 751.762 589.971 755.416 C 592.598 763.052 592.65 767 590.122 767 C 589.09 767 587.732 767.618 587.105 768.373 C 585.559 770.237 586.773 773 589.138 773 C 590.197 773 591.308 773.64 591.608 774.422 C 592.336 776.317 590.175 780.228 588.682 779.718 C 588.032 779.496 585.925 780.116 584 781.097 C 582.075 782.077 577.207 783.192 573.182 783.575 L 565.864 784.272 L 566.329 737.386 C 566.585 711.599 567.361 662.15 568.055 627.5 C 569.046 577.955 569.062 553.287 568.129 512 C 567.477 483.125 566.519 455.675 566 451 C 565.481 446.325 564.565 438 563.965 432.5 C 562.426 418.407 559.604 407.145 555.369 398.199 C 550.471 387.854 548.636 377.573 550.418 370.472 C 551.033 368.02 555.684 362.327 565.632 351.844 C 568.585 348.734 571 345.79 571 345.303 C 571 343.903 562.814 336.375 559.462 334.693 C 557.792 333.854 552.732 332.603 548.218 331.912 C 541.524 330.887 539.562 330.896 537.573 331.961 C 536.232 332.679 534.502 333.023 533.729 332.726 C 532.127 332.111 521.561 337.214 518.402 340.128 C 517.248 341.192 515.72 343.155 515.005 344.491 C 513.778 346.783 514.076 347.303 520.274 353.71 C 523.887 357.444 527.713 361.625 528.776 363 C 531.827 366.946 534.779 378.4 533.025 379.485 C 532.525 379.794 531.835 382.174 531.492 384.773 C 531.149 387.373 530.035 391.075 529.016 393 C 525.709 399.252 518.231 417.392 516.644 423.016 C 511.67 440.633 506.128 485.591 501.42 546.5 C 500.612 556.95 499.29 574.05 498.483 584.5 C 497.675 594.95 496.345 613.175 495.528 625 C 494.711 636.825 493.592 651.675 493.041 658 C 492.491 664.325 491.571 675.35 490.996 682.5 C 490.421 689.65 489.523 699.1 489.001 703.5 C 486.503 724.515 484.057 750.64 483.586 761.332 C 483.256 768.825 482.52 774.255 481.58 776.14 C 480.427 778.452 480.344 779.661 481.208 781.558 C 481.82 782.901 482.699 784 483.161 784 C 483.622 784 484 784.518 484 785.151 C 484 786.748 460.707 785.621 451.5 783.579 C 447.65 782.725 436.666 781.083 427.092 779.929 C 417.518 778.775 408.601 777.419 407.277 776.915 C 405.953 776.412 403.604 776 402.057 776 C 397.15 776 396.649 773.933 400.217 768.418 C 401.968 765.713 403.289 763.101 403.154 762.613 C 403.019 762.125 403.744 760.775 404.765 759.613 C 406.485 757.656 412.947 746.574 417.517 737.744 C 418.586 735.679 420.298 733.723 421.322 733.398 C 422.604 732.991 423.018 732.177 422.653 730.78 C 422.199 729.045 427.21 717.415 431.823 709.5 C 433.424 706.753 443.516 684.162 447.235 675 C 454.315 657.561 462.45 620.868 464.086 599 C 464.81 589.326 464.961 561.535 464.539 515.5 C 464.153 473.359 464.291 440.856 464.895 432 C 470.19 354.314 471.227 342.457 473.633 332.082 C 474.458 328.526 474.906 324.75 474.63 323.692 C 474.353 322.635 474.52 317.883 475.001 313.135 C 477.148 291.942 476.984 291.151 472.343 300.309 C 467.757 309.36 457.754 316.529 445.081 319.847 C 425.479 324.978 396.201 337.418 373.5 350.26 C 366.586 354.171 346.264 365.258 337.572 369.861 C 334.312 371.587 330.765 373 329.69 373 C 327.089 373 321.569 376.483 319.735 379.281 C 318.926 380.517 317.076 384.82 315.624 388.844 C 314.172 392.869 311.844 398.655 310.45 401.703 C 308.876 405.143 306.192 416.017 303.371 430.373 C 300.872 443.093 297.126 458.675 295.046 465 C 288.396 485.225 285.633 498.811 286.272 508.14 C 286.735 514.892 286.51 516.879 284.942 519.886 C 282.764 524.065 278.637 543.503 279.349 546.227 C 279.613 547.236 278.708 551.536 277.337 555.781 C 273.969 566.215 272.008 578.634 272.004 589.562 C 272.001 595.205 271.28 601.429 270.09 606.062 C 269.04 610.153 267.887 616.425 267.529 620 C 267.17 623.575 266.014 630.325 264.961 635 C 259.823 657.795 257 672.21 257 675.646 C 257 677.729 257.74 681.371 258.644 683.739 C 259.549 686.107 260.111 688.165 259.894 688.313 C 250.419 694.755 248.738 698.642 251.355 708.054 C 252.278 711.373 253.288 717.556 253.6 721.794 C 253.912 726.032 254.57 730.777 255.062 732.337 C 255.554 733.898 256.664 740.597 257.529 747.225 C 258.394 753.853 259.979 763.538 261.051 768.748 C 262.334 774.984 263 782.229 263 789.955 C 263 802.794 263.099 803.036 269.72 806.39 C 273.947 808.53 274.762 810.268 275.434 818.565 C 275.742 822.379 276.614 828.875 277.372 833 C 282.699 862.015 283.966 866.585 290.539 880.5 C 292.877 885.45 297.503 895.397 300.817 902.604 L 306.844 915.707 L 301.047 934.604 C 294.671 955.386 290 972.202 290 974.372 C 290 976.094 296.534 982.638 300.172 984.559 C 306.802 988.061 312.651 989.421 320.44 989.271 C 327.595 989.133 328.818 988.809 332.819 985.988 C 335.261 984.267 337.614 983.228 338.048 983.679 C 338.482 984.131 339.328 989 339.928 994.5 C 340.528 1000 341.692 1007.425 342.516 1011 C 343.339 1014.575 344.883 1021.873 345.946 1027.218 C 347.018 1032.608 348.98 1038.843 350.351 1041.218 C 351.712 1043.573 353.742 1048.425 354.863 1052 C 355.984 1055.575 358.053 1061.278 359.46 1064.673 C 360.867 1068.069 363.113 1074.819 364.452 1079.673 C 365.791 1084.528 368.003 1092.325 369.368 1097 C 370.732 1101.675 372.116 1106.737 372.443 1108.25 L 373.038 1111 L 451.126 1111 C 518.547 1111 529.139 1110.804 528.663 1109.565 C 528.063 1108 530.657 1074.435 531.567 1072.003 C 531.875 1071.179 532.5 1066.229 532.956 1061.003 C 533.732 1052.115 535.959 1038.321 539.655 1019.5 C 541.72 1008.989 542.486 1006.463 543.542 1006.68 C 544.023 1006.78 546.07 1011.73 548.09 1017.68 C 550.11 1023.631 552.897 1031.43 554.283 1035.012 C 555.669 1038.593 558.035 1046.243 559.541 1052.012 C 561.047 1057.78 563.131 1065.65 564.172 1069.5 C 565.579 1074.701 568.212 1097.264 568.986 1110.75 C 568.994 1110.888 604.262 1111 647.361 1111 L 725.721 1111 L 726.221 1071.75 C 726.667 1036.751 726.917 1032.067 728.525 1028.5 C 729.516 1026.3 730.816 1020 731.414 1014.5 L 732.5 1004.5 L 737.759 1003.566 C 742.206 1002.776 742.928 1002.349 742.437 1000.8 C 742.117 999.793 742.788 996.274 743.928 992.98 C 745.067 989.687 746 985.991 746 984.767 C 746 981.843 750.781 969.249 753.22 965.75 C 755.141 962.994 754.452 961.948 752.2 964.2 C 750.121 966.279 749.161 963.846 748.823 955.635 C 748.51 948.01 748.586 947.704 751.324 945.635 C 754.002 943.611 755.246 943.5 775.324 943.507 C 792.634 943.512 797.96 943.86 804.5 945.412 C 814.812 947.861 818.946 949.626 821.601 952.716 C 822.782 954.091 823.966 954.829 824.231 954.358 C 824.744 953.445 825.271 941.992 825.444 928 C 825.718 905.881 827.306 878.779 828.722 872.051 C 829.994 866.008 830.135 861.759 829.472 849.551 C 829.022 841.273 828.58 829.1 828.489 822.5 C 828.398 815.9 827.827 807.35 827.22 803.5 C 826.613 799.65 825.635 789.3 825.045 780.5 C 823.229 753.404 821.941 739.13 819.855 723 C 818.752 714.475 817.893 705.475 817.945 703 C 818.186 691.525 815.687 665.138 813.731 658.5 C 811.983 652.569 811.655 648.599 811.584 632.5 C 811.504 614.345 811.358 612.988 808.313 602 C 806.56 595.675 804.166 583.075 802.993 574 C 801.819 564.925 800.441 554.489 799.93 550.808 C 799.418 547.128 799 538.829 799 532.365 C 799 515.615 797.251 494.291 794.828 481.5 C 793.466 474.311 792.652 465.477 792.48 456 C 792.217 441.581 792.181 441.38 786.071 420 C 778.526 393.603 773.824 379.593 769.828 371.604 C 765.94 363.829 764.292 362 761.176 362 C 759.793 362 756.347 360.694 753.518 359.097 C 750.689 357.5 744.352 354.835 739.437 353.174 C 728.682 349.539 708.773 341.374 700.5 337.205 C 690.353 332.092 659 319.329 649.5 316.445 C 639.244 313.331 623.086 303.541 620.912 299.124 C 617.337 291.862 611.507 282 610.789 282 C 610.342 282 610.319 283.913 610.738 286.25 M 710.805 638.525 C 709.451 640.758 712.396 670.35 716.524 696 C 726.039 755.12 728.396 766.891 731.048 768.53 C 732.282 769.292 732.249 768.278 730.901 763.993 C 730.297 762.072 728.982 755.1 727.98 748.5 C 726.977 741.9 725.393 732.225 724.459 727 C 723.167 719.776 722.901 714.456 723.346 704.793 L 723.931 692.086 L 719.985 681.583 C 716.591 672.546 715.945 669.512 715.358 659.838 C 714.7 649.015 712.028 636.507 710.805 638.525 M 345.661 692.503 L 342.847 696.952 L 346.173 700.923 L 349.5 704.893 L 349.791 698.645 C 349.951 695.208 349.721 691.42 349.279 690.225 C 348.534 688.212 348.272 688.377 345.661 692.503 M 348.463 713.292 C 348.079 714.821 346.288 716.433 343.433 717.82 C 340.995 719.005 339 720.612 339 721.392 C 339 722.173 340.575 724.696 342.5 727 C 346.435 731.71 346.676 733.601 344.441 742.229 C 342.919 748.099 343.099 751.675 344.861 750.586 C 345.343 750.288 346.031 747.826 346.39 745.114 C 346.75 742.402 347.934 737.597 349.022 734.435 C 350.371 730.516 351 726.051 351 720.402 C 351 712.315 349.654 708.544 348.463 713.292 M 393.569 789.573 C 391.454 791.689 391.593 793.712 393.941 794.968 C 395.508 795.807 396.182 795.578 397.441 793.781 C 399.454 790.906 399.406 790.288 397.069 789.037 C 395.612 788.257 394.754 788.389 393.569 789.573 M 733.62 804.805 C 733.347 805.248 733.551 807.386 734.075 809.555 C 734.599 811.725 735.482 818.9 736.037 825.5 C 737.772 846.141 743.1 892.29 745.503 907.504 C 746.372 913.002 747.351 920.087 747.68 923.25 C 748.009 926.413 748.645 929 749.094 929 C 750.121 929 750.668 925.53 752.011 910.5 C 752.601 903.9 753.504 896.7 754.018 894.5 C 754.532 892.3 754.963 888.641 754.976 886.369 C 754.997 882.812 754.515 881.867 751.513 879.578 C 746.382 875.664 745.693 873.682 745.873 863.36 C 745.977 857.42 745.524 852.768 744.603 850.314 C 743.816 848.216 742.903 841.775 742.574 836 C 742.214 829.662 741.189 823.159 739.988 819.595 C 738.895 816.347 738 812.664 738 811.41 C 738 806.564 735.17 802.297 733.62 804.805 M 333.897 872.934 C 328.488 873.99 321.797 878.323 316.463 884.224 C 306.708 895.016 304.223 906.284 309.234 917 C 311.979 922.869 316.006 928 317.866 928 C 319.369 928 319.366 927.989 316.616 922.054 C 314.632 917.771 314.383 916.24 315.131 912.913 C 317.362 902.985 323.297 895.377 330.724 892.926 C 333.045 892.16 334.172 891.065 334.587 889.172 C 334.909 887.703 336.259 883.683 337.586 880.239 C 341.049 871.259 341.176 871.512 333.897 872.934 M 320.247 922.153 C 319.389 923.011 319.381 923.843 320.216 925.403 C 320.833 926.556 321.262 927.612 321.169 927.75 C 321.076 927.888 321 928.75 321 929.667 C 321 932.873 322.08 930.217 322.642 925.629 C 323.205 921.031 322.456 919.944 320.247 922.153 M 811.827 968.584 C 814.13 970.555 815.759 972.58 815.448 973.084 C 815.137 973.588 815.385 974 816 974 C 816.615 974 816.84 974.45 816.5 975 C 816.16 975.55 816.598 976 817.472 976 C 819.944 976 820.443 973.147 818.371 970.856 C 816.608 968.906 809.93 965 808.36 965 C 807.964 965 809.524 966.613 811.827 968.584 M 769.896 996.05 C 769.838 996.847 769.684 999.075 769.554 1001 C 769.423 1002.925 768.991 1007.062 768.593 1010.193 L 767.87 1015.885 L 771.685 1016.497 C 773.783 1016.834 776.239 1017.508 777.142 1017.996 C 778.776 1018.878 780 1018.394 780 1016.865 C 780 1016.424 779.325 1016.322 778.5 1016.638 C 777.395 1017.062 777 1016.503 777 1014.513 C 777 1012.654 776.377 1011.65 775 1011.29 C 772.698 1010.688 772.649 1010.525 774.006 1007.988 C 774.726 1006.644 774.556 1004.738 773.409 1001.304 C 771.662 996.075 770.066 993.687 769.896 996.05 M 749.083 1042.4 C 748.402 1043.221 748.545 1045.363 749.527 1049.055 C 750.324 1052.05 750.982 1055.513 750.988 1056.75 C 751.002 1059.322 748.848 1059.727 747 1057.5 C 744.636 1054.652 744.038 1056.012 746 1059.775 C 747.865 1063.354 753.511 1067.822 754.685 1066.648 C 754.985 1066.348 754.724 1064.647 754.104 1062.867 C 753.229 1060.358 753.259 1059.456 754.238 1058.846 C 756.411 1057.49 764.254 1056.681 765.914 1057.641 C 766.786 1058.145 768.521 1058.4 769.769 1058.207 C 771.697 1057.909 772.008 1057.303 771.843 1054.178 C 771.736 1052.155 771.979 1048.25 772.383 1045.5 C 773.031 1041.084 772.951 1040.705 771.694 1042.256 C 770.911 1043.222 769.698 1046.709 768.999 1050.006 C 768.299 1053.303 767.338 1056 766.863 1056 C 766.389 1056 766 1055.55 766 1055 C 766 1054.45 764.411 1054 762.469 1054 C 758.398 1054 756.639 1051.469 759.338 1049.495 C 761.747 1047.733 761.39 1047 758.122 1047 C 754.619 1047 752.489 1044.911 754.224 1043.176 C 754.871 1042.529 754.972 1041.966 754.45 1041.923 C 753.928 1041.881 752.732 1041.699 751.794 1041.518 C 750.855 1041.338 749.635 1041.734 749.083 1042.4 M 756 1042.874 C 756 1044.09 758.551 1045.007 761.832 1044.97 C 763.798 1044.947 764.105 1044.72 763 1044.105 C 760.467 1042.695 756 1041.91 756 1042.874 M 810.647 1062.25 C 810.092 1064.364 812.672 1064.565 815.25 1062.608 C 817.702 1060.746 817.445 1060.271 814.054 1060.394 C 812.149 1060.462 810.944 1061.119 810.647 1062.25 M 787.668 1064.75 C 787.235 1065.438 785.761 1066 784.391 1066 C 781.001 1066 776.615 1068.402 774.05 1071.664 C 771.029 1075.504 766.614 1078.283 757.999 1081.765 C 748.926 1085.433 743.987 1087.985 745.948 1087.994 C 748.378 1088.004 764 1082.986 764 1082.195 C 764 1081.788 765.688 1080.566 767.75 1079.48 C 769.813 1078.394 772.153 1076.883 772.951 1076.123 C 774.039 1075.086 776.346 1074.875 782.2 1075.276 C 786.489 1075.57 790.251 1075.403 790.558 1074.905 C 790.866 1074.407 793.679 1073.961 796.809 1073.914 C 801.536 1073.843 802.023 1073.685 799.686 1072.983 C 798.138 1072.519 796.286 1071.652 795.569 1071.057 C 794.611 1070.262 793.932 1070.377 793.01 1071.488 C 791.856 1072.878 786 1073.694 786 1072.465 C 786 1072.17 786.712 1070.843 787.583 1069.514 C 788.453 1068.185 789.005 1066.289 788.809 1065.299 C 788.55 1063.992 788.238 1063.841 787.668 1064.75"
    stroke="none" fill="#080e0d" fill-rule="evenodd"></path>
  <path
    d="M 0 548.428 L 1.648 1110.747 C 1.648 1110.747 204.767 1110.353 272.739 1110.672 L 372.979 1111.144 L 372.349 1107.822 C 372.002 1105.995 370.629 1100.9 369.298 1096.5 C 367.966 1092.1 365.784 1084.528 364.447 1079.673 C 363.111 1074.819 360.867 1068.069 359.46 1064.673 C 358.053 1061.278 355.984 1055.575 354.863 1052 C 353.742 1048.425 351.712 1043.573 350.351 1041.218 C 348.98 1038.843 347.018 1032.608 345.946 1027.218 C 344.883 1021.873 343.339 1014.575 342.516 1011 C 341.692 1007.425 340.528 1000 339.928 994.5 C 339.328 989 338.482 984.131 338.048 983.679 C 337.614 983.228 335.261 984.267 332.819 985.988 C 328.818 988.809 327.595 989.133 320.44 989.271 C 312.651 989.421 306.802 988.061 300.172 984.559 C 296.534 982.638 290 976.094 290 974.372 C 290 972.202 294.671 955.386 301.047 934.604 L 306.844 915.707 L 300.817 902.604 C 297.503 895.397 292.877 885.45 290.539 880.5 C 283.966 866.585 282.699 862.015 277.372 833 C 276.614 828.875 275.742 822.379 275.434 818.565 C 274.762 810.268 273.947 808.53 269.72 806.39 C 263.099 803.036 263 802.794 263 789.955 C 263 782.229 262.334 774.984 261.051 768.748 C 259.979 763.538 258.394 753.853 257.529 747.225 C 256.664 740.597 255.554 733.898 255.062 732.337 C 254.57 730.777 253.912 726.032 253.6 721.794 C 253.288 717.556 252.278 711.373 251.355 708.054 C 248.738 698.642 250.419 694.755 259.894 688.313 C 260.111 688.165 259.549 686.107 258.644 683.739 C 257.74 681.371 257 677.729 257 675.646 C 257 672.21 259.823 657.795 264.961 635 C 266.014 630.325 267.17 623.575 267.529 620 C 267.887 616.425 269.04 610.153 270.09 606.062 C 271.28 601.429 272.001 595.205 272.004 589.562 C 272.008 578.634 273.969 566.215 277.337 555.781 C 278.708 551.536 279.613 547.236 279.349 546.227 C 278.637 543.503 282.764 524.065 284.942 519.886 C 286.51 516.879 286.735 514.892 286.272 508.14 C 285.633 498.811 288.396 485.225 295.046 465 C 297.126 458.675 300.872 443.093 303.371 430.373 C 306.192 416.017 308.876 405.143 310.45 401.703 C 311.844 398.655 314.172 392.869 315.624 388.844 C 317.076 384.82 318.926 380.517 319.735 379.281 C 321.569 376.483 327.089 373 329.69 373 C 330.765 373 334.312 371.587 337.572 369.861 C 346.264 365.258 366.586 354.171 373.5 350.26 C 396.201 337.418 425.479 324.978 445.081 319.847 C 457.754 316.529 467.757 309.36 472.343 300.309 C 476.984 291.151 477.148 291.942 475.001 313.135 C 474.52 317.883 474.353 322.635 474.63 323.692 C 474.906 324.75 474.458 328.526 473.633 332.082 C 471.227 342.457 470.19 354.314 464.895 432 C 464.291 440.856 464.153 473.359 464.539 515.5 C 464.961 561.535 464.81 589.326 464.086 599 C 462.45 620.868 454.315 657.561 447.235 675 C 443.516 684.162 433.424 706.753 431.823 709.5 C 427.21 717.415 422.199 729.045 422.653 730.78 C 423.018 732.177 422.604 732.991 421.322 733.398 C 420.298 733.723 418.586 735.679 417.517 737.744 C 412.947 746.574 406.485 757.656 404.765 759.613 C 403.744 760.775 403.019 762.125 403.154 762.613 C 403.289 763.101 401.968 765.713 400.217 768.418 C 396.649 773.933 397.15 776 402.057 776 C 403.604 776 405.953 776.412 407.277 776.915 C 408.601 777.419 417.518 778.775 427.092 779.929 C 436.666 781.083 447.65 782.725 451.5 783.579 C 460.707 785.621 484 786.748 484 785.151 C 484 784.518 483.622 784 483.161 784 C 482.699 784 481.82 782.901 481.208 781.558 C 480.344 779.661 480.427 778.452 481.58 776.14 C 482.52 774.255 483.256 768.825 483.586 761.332 C 484.057 750.64 486.503 724.515 489.001 703.5 C 489.523 699.1 490.421 689.65 490.996 682.5 C 491.571 675.35 492.491 664.325 493.041 658 C 493.592 651.675 494.711 636.825 495.528 625 C 496.345 613.175 497.675 594.95 498.483 584.5 C 499.29 574.05 500.612 556.95 501.42 546.5 C 506.128 485.591 511.67 440.633 516.644 423.016 C 518.231 417.392 525.709 399.252 529.016 393 C 530.035 391.075 531.149 387.373 531.492 384.773 C 531.835 382.174 532.525 379.794 533.025 379.485 C 534.779 378.4 531.827 366.946 528.776 363 C 527.713 361.625 523.887 357.444 520.274 353.71 C 514.076 347.303 513.778 346.783 515.005 344.491 C 515.72 343.155 517.248 341.192 518.402 340.128 C 521.561 337.214 532.127 332.111 533.729 332.726 C 534.502 333.023 536.232 332.679 537.573 331.961 C 539.562 330.896 541.524 330.887 548.218 331.912 C 552.732 332.603 557.792 333.854 559.462 334.693 C 562.814 336.375 571 343.903 571 345.303 C 571 345.79 568.585 348.734 565.632 351.844 C 555.684 362.327 551.033 368.02 550.418 370.472 C 548.636 377.573 550.471 387.854 555.369 398.199 C 559.604 407.145 562.426 418.407 563.965 432.5 C 564.565 438 565.481 446.325 566 451 C 566.519 455.675 567.477 483.125 568.129 512 C 569.062 553.287 569.046 577.955 568.055 627.5 C 567.361 662.15 566.585 711.599 566.329 737.386 L 565.864 784.272 L 573.182 783.575 C 577.207 783.192 582.075 782.077 584 781.097 C 585.925 780.116 588.032 779.496 588.682 779.718 C 590.175 780.228 592.336 776.317 591.608 774.422 C 591.308 773.64 590.197 773 589.138 773 C 586.773 773 585.559 770.237 587.105 768.373 C 587.732 767.618 589.09 767 590.122 767 C 592.65 767 592.598 763.052 589.971 755.416 C 588.714 751.762 588.334 749.389 588.971 749.176 C 589.562 748.979 590 745.424 590 740.823 C 590 733.654 589.79 732.758 588 732.29 C 586.014 731.77 585.003 727 586.879 727 C 589.123 727 590.136 720.717 589.882 708.366 C 589.298 680.004 590.847 564.021 591.905 556.908 C 597.103 521.949 602.593 467.622 603.972 437.5 C 604.552 424.85 605.9 403.025 606.969 389 C 611.269 332.557 612.594 301.503 611.17 290.516 C 610.601 286.124 610.335 282.332 610.578 282.089 C 611.271 281.395 613.489 284.816 618.082 293.663 C 622.151 301.5 622.682 302.062 631.41 307.769 C 637.869 311.992 643.105 314.503 649.5 316.445 C 659 319.329 690.353 332.092 700.5 337.205 C 708.773 341.374 728.682 349.539 739.437 353.174 C 744.352 354.835 750.689 357.5 753.518 359.097 C 756.347 360.694 759.793 362 761.176 362 C 764.292 362 765.94 363.829 769.828 371.604 C 773.824 379.593 778.526 393.603 786.071 420 C 792.181 441.38 792.217 441.581 792.48 456 C 792.652 465.477 793.466 474.311 794.828 481.5 C 797.251 494.291 799 515.615 799 532.365 C 799 538.829 799.418 547.128 799.93 550.808 C 800.441 554.489 801.819 564.925 802.993 574 C 804.166 583.075 806.56 595.675 808.313 602 C 811.358 612.988 811.504 614.345 811.584 632.5 C 811.655 648.599 811.983 652.569 813.731 658.5 C 815.687 665.138 818.186 691.525 817.945 703 C 817.893 705.475 818.752 714.475 819.855 723 C 821.941 739.13 823.229 753.404 825.045 780.5 C 825.635 789.3 826.613 799.65 827.22 803.5 C 827.827 807.35 828.398 815.9 828.489 822.5 C 828.58 829.1 829.022 841.273 829.472 849.551 C 830.135 861.759 829.994 866.008 828.722 872.051 C 827.306 878.779 825.718 905.881 825.444 928 C 825.271 941.992 824.744 953.445 824.231 954.358 C 823.966 954.829 822.782 954.091 821.601 952.716 C 818.946 949.626 814.812 947.861 804.5 945.412 C 797.96 943.86 792.634 943.512 775.324 943.507 C 755.246 943.5 754.002 943.611 751.324 945.635 C 748.586 947.704 748.51 948.01 748.823 955.635 C 749.161 963.846 750.121 966.279 752.2 964.2 C 754.452 961.948 755.141 962.994 753.22 965.75 C 750.781 969.249 746 981.843 746 984.767 C 746 985.991 745.067 989.687 743.928 992.98 C 742.788 996.274 742.117 999.793 742.437 1000.8 C 742.928 1002.349 742.206 1002.776 737.759 1003.566 L 732.5 1004.5 L 731.414 1014.5 C 730.816 1020 729.516 1026.3 728.525 1028.5 C 726.917 1032.067 726.667 1036.751 726.221 1071.75 L 725.721 1111 L 918.708 1111 L 1111.694 1111 L 1112.343 1099.75 C 1112.699 1093.563 1112.993 843.587 1112.995 544.25 L 1113 0 L 556.5 0 L 0 0 L 0 548.428 M 0.496 549 C 0.496 850.675 0.611 974.088 0.75 823.25 C 0.889 672.413 0.889 425.588 0.75 274.75 C 0.611 123.913 0.496 247.325 0.496 549 M 553.72 21.614 C 553.382 21.951 549.111 22.289 544.228 22.364 C 536.471 22.483 534.855 22.828 531.423 25.1 C 527.075 27.979 523.498 28.936 514.352 29.669 C 510.19 30.002 507.538 30.782 506.144 32.081 C 505.011 33.136 503.416 34 502.601 34 C 501.785 34 500.84 34.45 500.5 35 C 500.16 35.55 498.742 36 497.349 36 C 495.955 36 493.671 36.9 492.273 38 C 490.874 39.1 488.441 40 486.865 40 C 485.289 40 484 40.418 484 40.929 C 484 41.879 476.751 47.115 473.946 48.191 C 471.933 48.963 466 60.089 466 63.092 C 466 64.364 464.697 66.776 463.105 68.452 C 459.74 71.995 458.026 78.758 457.949 88.799 C 457.92 92.485 457.551 98.617 457.129 102.426 C 456.606 107.13 456.797 111.622 457.722 116.426 C 458.471 120.317 459.459 129.575 459.917 137 C 460.571 147.588 461.262 151.74 463.125 156.249 C 464.431 159.41 466.014 161.998 466.642 161.999 C 467.269 161.999 468.055 163.081 468.386 164.402 C 469.072 167.135 468.129 173 467.004 173 C 466.594 173 466.194 175.925 466.117 179.5 C 466.009 184.473 466.305 186 467.377 186 C 468.185 186 469.12 187.587 469.587 189.75 C 470.762 195.199 470.698 195.535 468.554 195.161 C 466.881 194.87 466.792 195.045 467.924 196.409 C 468.816 197.483 469.1 199.943 468.804 204.028 C 468.499 208.246 468.764 210.389 469.684 211.153 C 470.516 211.843 471 214.551 471 218.515 C 471 227.473 473.672 239.373 477.517 247.545 C 479.341 251.42 481.133 256.37 481.499 258.545 C 482.5 264.481 485.043 272 486.049 272 C 486.538 272 486.678 271.325 486.362 270.5 C 486.045 269.675 486.172 269.001 486.643 269.001 C 488.237 269.003 493 273.722 493 275.299 C 493 276.16 493.788 277.135 494.75 277.465 C 495.712 277.795 497.4 279.368 498.5 280.961 C 502.764 287.136 508.552 293.889 509.628 293.943 C 510.248 293.974 511.311 294.67 511.991 295.489 C 512.671 296.308 513.632 296.728 514.127 296.422 C 514.622 296.116 516.786 297.695 518.935 299.933 C 521.085 302.17 523.569 304 524.455 304 C 526.176 304 532 309.425 532 311.028 C 532 312.7 540.196 318 542.782 318 C 544.147 318 546.892 316.994 548.882 315.764 C 550.872 314.534 552.532 313.522 552.571 313.514 C 552.611 313.506 553.411 314.268 554.35 315.208 C 555.352 316.209 556.77 316.653 557.779 316.282 C 560.791 315.175 563.999 312.807 563.526 312.041 C 563.274 311.634 564.17 310.712 565.518 309.991 C 566.865 309.27 568.222 307.875 568.535 306.891 C 568.847 305.907 569.998 304.818 571.093 304.47 C 572.811 303.925 577.132 300.222 585.605 292.034 C 586.763 290.915 588.311 290 589.045 290 C 590.877 290 598 281.972 598 279.907 C 598 278.986 598.945 277.986 600.101 277.684 C 601.277 277.376 601.907 276.658 601.532 276.052 C 600.846 274.941 605.886 264 607.085 264 C 607.945 264 616.115 247.227 616.561 244.543 C 616.748 243.419 617.576 239.537 618.401 235.915 C 619.225 232.293 620.164 224.193 620.487 217.915 C 621.944 189.607 622.14 183.538 621.582 184.091 C 621.014 184.653 620.614 187.229 618.024 207 C 616.348 219.79 616.4 219.658 612.763 220.506 C 610.968 220.924 609.007 221.203 608.405 221.125 C 607.803 221.047 606.092 222.112 604.603 223.492 C 603.115 224.871 601.672 226 601.397 226 C 601.123 226 600.24 224.425 599.436 222.5 C 597.755 218.479 595.909 218.011 594.487 221.244 C 593.421 223.668 589.759 225.049 590.224 222.852 C 590.376 222.135 589.469 221.391 588.208 221.199 C 586.948 221.007 584.437 219.37 582.629 217.562 C 580.82 215.753 577.049 213.513 574.247 212.582 C 571.446 211.652 568.614 210.24 567.955 209.445 C 567.295 208.65 566.135 208 565.378 208 C 563.518 208 563.64 207.274 566 204.273 C 567.1 202.874 568 201.341 568 200.865 C 568 199.324 558.344 199.881 557 201.5 C 554.954 203.965 548.723 203.398 546 200.5 C 543.357 197.687 538.114 197.175 534.199 199.348 L 531.898 200.625 L 534.395 203.122 L 536.892 205.62 L 530.696 208.422 C 527.288 209.963 523.419 211.736 522.098 212.362 C 520.778 212.988 518.827 213.353 517.764 213.173 C 516.701 212.993 514.072 214.01 511.921 215.434 C 506.454 219.051 503.903 219.135 502.241 215.75 C 500.711 212.635 497.234 212.04 496.396 214.75 C 496.098 215.713 495.437 217.281 494.927 218.236 C 494.417 219.191 493.964 220.991 493.921 222.236 C 493.869 223.737 493.646 224 493.26 223.018 C 492.94 222.203 492.076 220.933 491.339 220.196 C 490.603 219.46 490 218.321 490 217.666 C 490 217.01 488.988 216.03 487.75 215.487 C 486.512 214.944 485.456 213.825 485.402 213 C 485.115 208.591 484.92 207.931 484.061 208.462 C 483.545 208.781 482.758 208.47 482.311 207.771 C 481.865 207.072 480.6 206.002 479.5 205.393 C 478.147 204.645 477.452 203.148 477.352 200.769 C 477.271 198.834 476.675 196.261 476.027 195.051 C 475.35 193.786 474.563 185.655 474.175 175.91 L 473.5 158.968 L 476 156.942 C 477.375 155.828 479.352 155.135 480.394 155.403 C 481.821 155.768 482.005 155.605 481.139 154.739 C 480.507 154.107 478.754 153.569 477.245 153.545 L 474.5 153.5 L 474.807 143.587 C 475.012 137.005 475.6 132.982 476.557 131.615 C 477.351 130.482 478 128.962 478 128.237 C 478 127.512 478.896 125.7 479.992 124.21 C 481.763 121.8 481.946 120.225 481.649 110 C 481.28 97.333 481.892 95.16 487.981 87.5 C 491.404 83.192 496 80.085 496 82.076 C 496 83.427 501.142 82.388 502.096 80.845 C 502.434 80.297 506.011 79.435 510.044 78.928 C 514.078 78.422 517.633 77.594 517.945 77.089 C 518.457 76.261 523.324 76.353 535.798 77.427 C 538.162 77.631 541.417 78.344 543.03 79.013 C 544.644 79.681 546.704 79.944 547.609 79.597 C 548.513 79.25 549.817 79.433 550.505 80.004 C 551.363 80.716 552.602 80.722 554.443 80.021 C 555.921 79.46 558.705 79 560.631 79 C 562.556 79 564.918 78.579 565.88 78.064 C 566.976 77.478 569.282 77.502 572.064 78.128 C 574.504 78.678 578.176 79.152 580.225 79.181 C 582.274 79.211 584.467 79.857 585.098 80.618 C 585.729 81.378 587.278 82 588.541 82 C 589.804 82 592.112 82.63 593.669 83.4 C 595.226 84.17 598.271 85.354 600.436 86.032 C 604.9 87.429 607.197 89.414 612.434 96.397 C 614.717 99.44 615.752 101.648 615.17 102.23 C 614.588 102.812 614.922 105.439 616.052 109.171 C 617.808 114.972 617.754 118 615.893 118 C 615.402 118 615.007 120.362 615.015 123.25 C 615.026 126.821 615.324 128.037 615.947 127.052 C 616.652 125.937 617.002 126.282 617.469 128.552 C 617.803 130.173 619.027 133.283 620.19 135.462 C 621.886 138.641 622.4 141.768 622.793 151.297 C 623.164 160.321 623.624 163.302 624.708 163.718 C 627.933 164.956 628.96 161.622 631.521 141.588 C 632.43 134.487 633.588 127.584 634.095 126.249 C 634.603 124.914 635.212 120.282 635.45 115.956 C 635.687 111.63 636.314 107.281 636.843 106.293 C 637.849 104.414 637.753 97.593 636.476 80.087 L 635.717 69.673 L 630.4 64.087 C 617.061 50.071 615.576 48.828 607.776 45.141 C 600.728 41.811 598.031 38.872 599.927 36.588 C 600.708 35.647 600.525 34.913 599.246 33.845 C 595.943 31.086 591.89 30 584.903 30 C 578.051 30 572 28.112 572 25.974 C 572 25.438 570.081 25 567.735 25 C 565.381 25 561.799 24.104 559.739 23 C 555.777 20.876 554.704 20.629 553.72 21.614 M 501 135.739 C 497.425 137.192 493.323 139.628 491.884 141.153 C 489.503 143.676 487.385 150.437 487.915 153.824 C 488.029 154.552 487.685 155.677 487.151 156.324 C 485.347 158.508 486.663 169.411 489.437 175.276 C 494.74 186.485 501.852 190.555 514.824 189.804 C 520.915 189.451 523.757 188.748 527.467 186.675 C 533.192 183.475 533.891 183.358 531.5 186 C 530.505 187.1 530.075 188 530.545 188 C 531.015 188 530.86 188.54 530.2 189.2 C 528.782 190.618 528.633 192 529.899 192 C 530.994 192 535 184.515 535 182.469 C 535 181.661 535.355 181 535.789 181 C 537.195 181 542.874 170.626 544.001 166 C 545.918 158.126 546.225 155 545.082 155 C 544.487 155 544 155.62 544 156.378 C 544 157.135 543.325 158.315 542.5 159 C 541.237 160.048 541 159.862 541 157.822 C 541 156.49 541.563 154.794 542.25 154.053 C 543.25 152.976 543.25 152.848 542.25 153.412 C 541.488 153.842 541 153.523 541 152.594 C 541 151.756 540.1 150.589 539 150 C 536.688 148.763 536.26 146.502 538.5 147.362 C 540.175 148.004 540.572 146.471 538.984 145.49 C 538.425 145.144 538.226 144.443 538.543 143.931 C 538.859 143.419 538.465 143 537.666 143 C 536.867 143 535.962 142.344 535.654 141.542 C 535.089 140.07 527.454 137.52 521 136.648 C 519.075 136.388 515.25 135.465 512.5 134.598 C 509.75 133.731 507.5 133.039 507.5 133.06 C 507.5 133.08 504.575 134.286 501 135.739 M 581.58 139.121 C 573.857 140.734 572.29 141.421 569.909 144.242 C 567.481 147.117 566.918 147.354 565.11 146.261 C 563.192 145.1 563.07 145.246 563.194 148.547 C 563.267 150.487 562.824 152.576 562.21 153.19 C 561.427 153.973 561.401 154.881 562.124 156.231 C 563.289 158.408 562.636 161 560.923 161 C 560.207 161 560.016 160.071 560.411 158.5 C 560.782 157.021 560.609 156 559.987 156 C 558.479 156 557.093 160.226 558.019 162 C 558.45 162.825 559.122 165.628 559.512 168.228 C 560.966 177.929 565.571 187.098 570.227 189.564 C 572.027 190.518 575.3 192.234 577.5 193.379 C 583.802 196.658 593.531 196.819 600.223 193.756 C 611.773 188.468 618.609 173.719 615.173 161.5 C 614.4 158.75 612.92 155.571 611.884 154.436 C 610.848 153.3 610 151.219 610 149.811 C 610 144.705 599.573 136.826 593.216 137.13 C 591.722 137.201 586.486 138.097 581.58 139.121 M 512 142.417 C 512 143.287 511.663 144.02 511.25 144.044 C 510.837 144.069 508.363 144.244 505.75 144.433 C 502.2 144.689 501 144.426 501 143.388 C 501 142.625 500.295 142 499.433 142 C 498.383 142 498.052 142.59 498.432 143.785 C 498.832 145.045 498.112 146.093 495.986 147.349 C 494.329 148.328 492.274 150.788 491.421 152.815 C 489.481 157.42 489.397 167.373 491.259 172 C 494.565 180.217 495.495 182 496.479 182 C 497.051 182 498.029 182.817 498.652 183.815 C 500.237 186.353 509.671 188.445 515.666 187.588 C 518.325 187.208 521.333 186.808 522.351 186.699 C 524.55 186.463 531.127 180.149 533.977 175.537 C 535.09 173.737 536 171.106 536 169.691 C 536 168.276 536.45 166.84 537 166.5 C 538.255 165.725 538.325 161 537.082 161 C 536.577 161 535.426 160.717 534.524 160.371 C 533.202 159.864 532.944 160.3 533.192 162.621 C 533.468 165.205 533.202 165.5 530.583 165.5 C 528.254 165.5 527.632 165.036 527.496 163.199 C 527.403 161.934 526.597 160.168 525.704 159.276 C 524.208 157.78 524.009 157.845 523.145 160.118 C 520.892 166.046 514.876 166.651 511.514 161.289 C 510.406 159.522 509.168 158.06 508.762 158.039 C 508.356 158.017 507.73 159.839 507.37 162.086 C 507.011 164.333 506.068 166.42 505.275 166.725 C 504.292 167.102 504.186 167.497 504.945 167.966 C 505.628 168.388 505.082 169.097 503.528 169.805 C 501.13 170.898 501 170.803 501 167.957 C 501 165.644 500.37 164.681 498.25 163.749 C 494.768 162.219 494.034 161.175 494.015 157.719 C 494.006 155.975 494.653 154.694 495.75 154.286 C 496.712 153.928 498.625 152.831 500 151.847 C 502.438 150.104 511 148.153 511 149.34 C 511 149.668 509.762 150.623 508.25 151.463 L 505.5 152.99 L 508.353 152.543 C 509.922 152.296 512.312 151.37 513.664 150.485 C 515.016 149.599 516.657 149.092 517.311 149.358 C 517.965 149.624 517.6 149.885 516.5 149.936 C 514.838 150.015 514.754 150.193 516 150.992 C 516.825 151.522 518.199 151.738 519.052 151.472 C 519.906 151.207 521.481 151.653 522.552 152.464 C 524.454 153.902 524.447 153.937 522.25 153.968 C 521.013 153.986 520 154.398 520 154.883 C 520 155.369 519.1 156.002 518 156.29 C 516.9 156.577 516 156.33 516 155.74 C 516 155.15 515.764 154.902 515.476 155.19 C 515.189 155.478 515.233 156.444 515.576 157.338 C 516.022 158.498 517.097 158.844 519.35 158.548 C 521.082 158.321 522.837 158.105 523.25 158.067 C 523.663 158.03 524 157.325 524 156.5 C 524 155.667 524.889 155 526 155 C 527.1 155 528 154.501 528 153.892 C 528 152.487 533.177 153.683 534.225 155.329 C 534.73 156.124 534.974 155.987 534.985 154.905 C 534.993 154.028 534.086 152.483 532.968 151.471 C 531.851 150.46 531.063 148.703 531.218 147.566 C 531.473 145.696 531.053 145.528 526.781 145.797 C 521.262 146.144 513.919 144.409 514.262 142.84 C 514.393 142.24 513.938 141.544 513.25 141.292 C 512.563 141.04 512 141.546 512 142.417 M 592.305 146.651 C 590.901 146.954 590.309 147.643 590.662 148.562 C 591.392 150.463 594 150.415 594 148.5 C 594 146.647 593.978 146.647 600.67 148.593 C 606.517 150.292 609.208 149.811 604.389 147.927 C 600.95 146.583 595.356 145.992 592.305 146.651 M 573.08 151.29 C 572.568 152.636 570.93 154.696 569.44 155.869 C 566.338 158.308 567.429 158.789 570.764 156.453 C 572.553 155.2 572.87 155.175 572.43 156.321 C 571.739 158.123 575.664 159.25 578.096 157.949 C 580.352 156.741 581 156.753 581 158 C 581 158.55 580.448 158.887 579.774 158.75 C 579.099 158.613 578.393 159.512 578.204 160.75 C 577.954 162.389 578.355 162.996 579.68 162.985 C 582.395 162.962 584.141 161.532 583.499 159.858 C 582.423 157.055 586.904 155.758 592.172 157.348 C 595.756 158.429 596.733 158.468 596.367 157.514 C 596.105 156.83 594.799 155.774 593.465 155.166 C 591.976 154.488 591.252 153.506 591.59 152.625 C 592.178 151.095 589.504 150.309 583 150.1 C 581.075 150.039 578.265 149.731 576.755 149.416 C 574.496 148.945 573.845 149.276 573.08 151.29 M 593.5 151.777 C 594.05 152.343 595.399 152.968 596.498 153.166 C 597.703 153.384 598.497 154.315 598.498 155.513 C 598.499 156.773 599.084 157.405 600.096 157.242 C 601.705 156.981 601.706 156.996 601.08 169.046 C 601.027 170.074 600.078 170.558 598.25 170.49 C 596.737 170.434 594.938 170.805 594.25 171.316 C 593.441 171.917 593 171.849 593 171.122 C 593 170.505 593.506 170 594.125 170 C 594.856 170 595.027 168.885 594.613 166.816 C 593.506 161.279 589 158.139 589 162.904 C 589 165.652 585.716 168 581.872 168 C 578.8 168 578.253 167.59 577.11 164.427 C 575.874 161.009 575.737 160.928 573.935 162.559 C 572.899 163.497 571.784 165.104 571.458 166.132 C 570.598 168.842 568.287 168.422 566.609 165.25 C 565.325 162.822 565.071 162.712 564.446 164.314 C 564.056 165.311 564.246 167.245 564.869 168.611 C 565.491 169.977 566 172.22 566 173.597 C 566 178.281 571.536 186.935 576.485 189.986 C 584.485 194.918 592.382 195.439 599.937 191.533 C 601.567 190.69 603.618 190 604.494 190 C 605.371 190 605.964 189.438 605.812 188.75 C 605.661 188.063 607.1 184.8 609.01 181.5 C 612.09 176.179 612.485 174.688 612.492 168.327 C 612.501 160.061 610.813 156.896 604.701 153.724 C 600.583 151.588 591.839 150.067 593.5 151.777 M 453 164.362 C 453 164.562 454.238 166.273 455.75 168.166 C 457.92 170.881 459.005 171.485 460.894 171.033 C 463.261 170.466 463.246 170.423 459.609 167.23 C 456.526 164.523 453 162.993 453 164.362 M 622 166.058 C 620.625 166.466 620.073 166.845 620.773 166.9 C 621.75 166.977 621.892 168.862 621.38 175 C 620.966 179.965 621.081 183 621.683 183 C 622.726 183 626.018 166.087 625.069 165.604 C 624.756 165.445 623.375 165.649 622 166.058 M 520.822 169.875 C 514.444 172.091 513.492 173.433 518.885 172.606 C 521.296 172.236 524.394 171.048 525.77 169.967 C 528.706 167.657 527.282 167.631 520.822 169.875 M 573.459 171.067 C 573.096 171.653 572.957 172.281 573.15 172.461 C 574.127 173.378 581.373 175.96 581.792 175.541 C 582.059 175.274 581.151 174.628 579.775 174.105 C 578.399 173.581 577.001 172.444 576.668 171.577 C 575.971 169.761 574.418 169.514 573.459 171.067 M 540.5 205 C 538.903 205.686 539.267 205.874 542.309 205.93 C 544.579 205.972 545.868 206.404 545.5 207 C 545.16 207.55 545.584 208 546.441 208 C 547.298 208 548 208.421 548 208.935 C 548 210.932 545.986 215.014 544.04 216.96 C 541.391 219.609 541.467 220.558 544.573 223.664 C 546.689 225.78 547.776 226.136 550.68 225.665 C 554.063 225.115 556.901 222.738 556.968 220.396 C 556.986 219.789 555.875 218.078 554.5 216.595 C 553.125 215.111 552 212.763 552 211.377 C 552 208.46 550.246 206.424 546.51 205.004 C 543.464 203.846 543.187 203.846 540.5 205 M 529 231.916 C 525.425 233.503 519.935 235.324 516.799 235.962 C 511.117 237.118 511.102 237.13 512.24 239.811 C 514.396 244.889 517.055 247 521.298 247 L 525.248 247 L 524.797 252.429 C 524.412 257.082 524.611 257.926 526.191 258.34 C 527.949 258.799 531 256.73 531 255.078 C 531 253.312 528.745 248 527.996 248 C 526.493 248 528.113 244.411 530.205 243.104 C 531.358 242.384 535.331 241.788 539.141 241.764 C 542.913 241.741 546 241.357 546 240.912 C 546 240.466 547.566 240.757 549.481 241.557 C 551.396 242.356 555.332 243.352 558.229 243.769 C 561.805 244.284 563.528 245.004 563.596 246.014 C 563.651 246.831 563.764 248.486 563.848 249.69 C 563.971 251.464 564.522 251.818 566.75 251.554 C 568.263 251.375 570.962 251.177 572.75 251.114 C 575.263 251.026 576 250.559 576 249.057 C 576 247.988 576.939 246.456 578.086 245.652 C 579.746 244.49 579.963 243.798 579.146 242.273 C 577.853 239.857 570.926 235 568.773 235 C 567.882 235 565.727 233.8 563.984 232.333 C 560.973 229.799 560.186 229.651 548.158 229.348 C 536.029 229.042 535.228 229.15 529 231.916 M 561.667 254.667 C 560.492 255.841 560.954 259 562.3 259 C 564.221 259 565.921 256.957 565.315 255.378 C 564.757 253.925 562.792 253.542 561.667 254.667 M 710.805 638.525 C 709.451 640.758 712.396 670.35 716.524 696 C 726.039 755.12 728.396 766.891 731.048 768.53 C 732.282 769.292 732.249 768.278 730.901 763.993 C 730.297 762.072 728.982 755.1 727.98 748.5 C 726.977 741.9 725.393 732.225 724.459 727 C 723.167 719.776 722.901 714.456 723.346 704.793 L 723.931 692.086 L 719.985 681.583 C 716.591 672.546 715.945 669.512 715.358 659.838 C 714.7 649.015 712.028 636.507 710.805 638.525 M 345.661 692.503 L 342.847 696.952 L 346.173 700.923 L 349.5 704.893 L 349.791 698.645 C 349.951 695.208 349.721 691.42 349.279 690.225 C 348.534 688.212 348.272 688.377 345.661 692.503 M 348.463 713.292 C 348.079 714.821 346.288 716.433 343.433 717.82 C 340.995 719.005 339 720.612 339 721.392 C 339 722.173 340.575 724.696 342.5 727 C 346.435 731.71 346.676 733.601 344.441 742.229 C 342.919 748.099 343.099 751.675 344.861 750.586 C 345.343 750.288 346.031 747.826 346.39 745.114 C 346.75 742.402 347.934 737.597 349.022 734.435 C 350.371 730.516 351 726.051 351 720.402 C 351 712.315 349.654 708.544 348.463 713.292 M 393.569 789.573 C 391.454 791.689 391.593 793.712 393.941 794.968 C 395.508 795.807 396.182 795.578 397.441 793.781 C 399.454 790.906 399.406 790.288 397.069 789.037 C 395.612 788.257 394.754 788.389 393.569 789.573 M 733.62 804.805 C 733.347 805.248 733.551 807.386 734.075 809.555 C 734.599 811.725 735.482 818.9 736.037 825.5 C 737.772 846.141 743.1 892.29 745.503 907.504 C 746.372 913.002 747.351 920.087 747.68 923.25 C 748.009 926.413 748.645 929 749.094 929 C 750.121 929 750.668 925.53 752.011 910.5 C 752.601 903.9 753.504 896.7 754.018 894.5 C 754.532 892.3 754.963 888.641 754.976 886.369 C 754.997 882.812 754.515 881.867 751.513 879.578 C 746.382 875.664 745.693 873.682 745.873 863.36 C 745.977 857.42 745.524 852.768 744.603 850.314 C 743.816 848.216 742.903 841.775 742.574 836 C 742.214 829.662 741.189 823.159 739.988 819.595 C 738.895 816.347 738 812.664 738 811.41 C 738 806.564 735.17 802.297 733.62 804.805 M 333.897 872.934 C 328.488 873.99 321.797 878.323 316.463 884.224 C 306.708 895.016 304.223 906.284 309.234 917 C 311.979 922.869 316.006 928 317.866 928 C 319.369 928 319.366 927.989 316.616 922.054 C 314.632 917.771 314.383 916.24 315.131 912.913 C 317.362 902.985 323.297 895.377 330.724 892.926 C 333.045 892.16 334.172 891.065 334.587 889.172 C 334.909 887.703 336.259 883.683 337.586 880.239 C 341.049 871.259 341.176 871.512 333.897 872.934 M 320.247 922.153 C 319.389 923.011 319.381 923.843 320.216 925.403 C 320.833 926.556 321.262 927.612 321.169 927.75 C 321.076 927.888 321 928.75 321 929.667 C 321 932.873 322.08 930.217 322.642 925.629 C 323.205 921.031 322.456 919.944 320.247 922.153 M 811.827 968.584 C 814.13 970.555 815.759 972.58 815.448 973.084 C 815.137 973.588 815.385 974 816 974 C 816.615 974 816.84 974.45 816.5 975 C 816.16 975.55 816.598 976 817.472 976 C 819.944 976 820.443 973.147 818.371 970.856 C 816.608 968.906 809.93 965 808.36 965 C 807.964 965 809.524 966.613 811.827 968.584 M 769.896 996.05 C 769.838 996.847 769.684 999.075 769.554 1001 C 769.423 1002.925 768.991 1007.062 768.593 1010.193 L 767.87 1015.885 L 771.685 1016.497 C 773.783 1016.834 776.239 1017.508 777.142 1017.996 C 778.776 1018.878 780 1018.394 780 1016.865 C 780 1016.424 779.325 1016.322 778.5 1016.638 C 777.395 1017.062 777 1016.503 777 1014.513 C 777 1012.654 776.377 1011.65 775 1011.29 C 772.698 1010.688 772.649 1010.525 774.006 1007.988 C 774.726 1006.644 774.556 1004.738 773.409 1001.304 C 771.662 996.075 770.066 993.687 769.896 996.05 M 542.663 1006.736 C 541.897 1007.975 539.214 1020.649 537.525 1031 C 536.763 1035.675 535.433 1043.325 534.571 1048 C 533.708 1052.675 532.991 1058.525 532.977 1061 C 532.963 1063.475 532.51 1067.412 531.971 1069.749 C 530.653 1075.46 527.97 1107.759 528.663 1109.565 C 529.116 1110.745 532.753 1111 549.135 1111 L 569.056 1111 L 568.512 1104.75 C 568.213 1101.313 567.53 1093.55 566.994 1087.5 C 566.459 1081.45 565.179 1073.35 564.15 1069.5 C 563.12 1065.65 561.046 1057.775 559.539 1052 C 558.033 1046.225 555 1036.775 552.799 1031 C 550.599 1025.225 547.902 1017.575 546.806 1014 C 544.713 1007.175 543.599 1005.222 542.663 1006.736 M 749.083 1042.4 C 748.402 1043.221 748.545 1045.363 749.527 1049.055 C 750.324 1052.05 750.982 1055.513 750.988 1056.75 C 751.002 1059.322 748.848 1059.727 747 1057.5 C 744.636 1054.652 744.038 1056.012 746 1059.775 C 747.865 1063.354 753.511 1067.822 754.685 1066.648 C 754.985 1066.348 754.724 1064.647 754.104 1062.867 C 753.229 1060.358 753.259 1059.456 754.238 1058.846 C 756.411 1057.49 764.254 1056.681 765.914 1057.641 C 766.786 1058.145 768.521 1058.4 769.769 1058.207 C 771.697 1057.909 772.008 1057.303 771.843 1054.178 C 771.736 1052.155 771.979 1048.25 772.383 1045.5 C 773.031 1041.084 772.951 1040.705 771.694 1042.256 C 770.911 1043.222 769.698 1046.709 768.999 1050.006 C 768.299 1053.303 767.338 1056 766.863 1056 C 766.389 1056 766 1055.55 766 1055 C 766 1054.45 764.411 1054 762.469 1054 C 758.398 1054 756.639 1051.469 759.338 1049.495 C 761.747 1047.733 761.39 1047 758.122 1047 C 754.619 1047 752.489 1044.911 754.224 1043.176 C 754.871 1042.529 754.972 1041.966 754.45 1041.923 C 753.928 1041.881 752.732 1041.699 751.794 1041.518 C 750.855 1041.338 749.635 1041.734 749.083 1042.4 M 756 1042.874 C 756 1044.09 758.551 1045.007 761.832 1044.97 C 763.798 1044.947 764.105 1044.72 763 1044.105 C 760.467 1042.695 756 1041.91 756 1042.874 M 810.647 1062.25 C 810.092 1064.364 812.672 1064.565 815.25 1062.608 C 817.702 1060.746 817.445 1060.271 814.054 1060.394 C 812.149 1060.462 810.944 1061.119 810.647 1062.25 M 787.668 1064.75 C 787.235 1065.438 785.761 1066 784.391 1066 C 781.001 1066 776.615 1068.402 774.05 1071.664 C 771.029 1075.504 766.614 1078.283 757.999 1081.765 C 748.926 1085.433 743.987 1087.985 745.948 1087.994 C 748.378 1088.004 764 1082.986 764 1082.195 C 764 1081.788 765.688 1080.566 767.75 1079.48 C 769.813 1078.394 772.153 1076.883 772.951 1076.123 C 774.039 1075.086 776.346 1074.875 782.2 1075.276 C 786.489 1075.57 790.251 1075.403 790.558 1074.905 C 790.866 1074.407 793.679 1073.961 796.809 1073.914 C 801.536 1073.843 802.023 1073.685 799.686 1072.983 C 798.138 1072.519 796.286 1071.652 795.569 1071.057 C 794.611 1070.262 793.932 1070.377 793.01 1071.488 C 791.856 1072.878 786 1073.694 786 1072.465 C 786 1072.17 786.712 1070.843 787.583 1069.514 C 788.453 1068.185 789.005 1066.289 788.809 1065.299 C 788.55 1063.992 788.238 1063.841 787.668 1064.75"
    stroke="none" fill="#ffffff" fill-rule="evenodd"></path>
</svg>